<?xml version="1.0"?>
<svg width="640" height="480" xmlns="http://www.w3.org/2000/svg" xmlns:svg="http://www.w3.org/2000/svg" enable-background="new 0 0 2950 2000" version="1.1" xml:space="preserve">
 <!-- Created with SVG-edit - https://github.com/SVG-Edit/svgedit-->
 <g class="layer">
  <title>Layer 1</title>
  <g id="svg_1">
   <path d="m51.93,375.42c-12.19,0 -22.13,-9.6 -22.17,-21.4l-0.22,-64.21c-0.02,-5.23 1.92,-10.19 5.32,-14.03c-3.11,-3.73 -4.9,-8.44 -4.91,-13.45l-0.11,-61.62c-0.01,-2.74 1.07,-9.51 2.08,-11.99c-1.22,-2.7 -2.42,-6.34 -2.42,-9.29l0,-53.29c0,-11.84 -0.77,-21.56 11.45,-21.56l550.78,0.31c12.23,0 17.15,9.41 17.15,21.25l0,56.91c0,3.65 -0.96,7.19 -2.72,10.32c1.73,3.09 2.68,6.59 2.7,10.19l0.32,65.31c0.01,2.06 -0.27,4.06 -0.84,6c0.55,1.87 0.82,3.81 0.82,5.8l0,73.28c0,11.84 -9.94,21.47 -22.17,21.47l-535.06,0z" fill="#89431B" id="svg_2"/>
   <path d="m608.38,274.72c-0.01,-0.05 -0.03,-0.1 -0.04,-0.15c0.55,-1.88 0.84,-3.83 0.84,-5.83l-0.32,-65.18c-0.02,-3.6 -0.97,-7.1 -2.7,-10.19c0.05,-0.09 0.1,-0.17 0.14,-0.26c-0.04,-0.09 -0.09,-0.18 -0.14,-0.27c1.76,-3.13 2.72,-6.68 2.72,-10.34l0,-56.36c0,-11.84 -4.92,-21.25 -17.14,-21.25l-39.14,-0.03c0.02,0.37 0.03,0.74 0.03,1.11l0,57.08c0,3.66 -0.96,7.21 -2.72,10.35c1.73,3.1 2.68,6.61 2.7,10.22l0.32,65.5c0.01,2.06 -0.27,4.07 -0.84,6.01c0.54,1.88 0.82,3.83 0.82,5.82l0,73.49c0,11.87 -9.94,21.53 -22.17,21.53l-500.88,0c0.94,9.35 8.07,16.98 17.33,18.95l0.06,0.01c0.14,0.03 0.28,0.06 0.43,0.09c0.03,0 0.07,0.01 0.11,0.02c0.13,0.02 0.26,0.05 0.4,0.07c0.04,0 0.09,0.01 0.13,0.02c0.13,0.02 0.25,0.04 0.38,0.06c0.06,0 0.11,0.01 0.17,0.02c0.12,0.02 0.23,0.03 0.35,0.04c0.07,0.01 0.14,0.02 0.21,0.03c0.1,0.01 0.21,0.02 0.32,0.03c0.08,0.01 0.17,0.02 0.25,0.02c0.1,0.01 0.19,0.02 0.28,0.03c0.09,0 0.19,0.01 0.29,0.01c0.08,0.01 0.17,0.01 0.26,0.02c0.11,0 0.21,0.01 0.32,0.01c0.07,0 0.15,0.01 0.22,0.01c0.19,0 0.37,0.01 0.56,0.01l535.06,0c0.19,0 0.38,-0.01 0.57,-0.01c11.96,-0.3 21.6,-9.84 21.6,-21.52l0,-73.22c0,-1.99 -0.28,-3.93 -0.82,-5.8c0.01,-0.05 0.03,-0.1 0.04,-0.15z" fill="#662F14" id="svg_3"/>
   <path d="m32.67,285.59l0.22,68.54c0.02,3.44 2.81,6.23 6.25,6.23l553.15,0c3.45,0 6.25,-2.8 6.25,-6.25l0,-78.23c0,-3.45 -2.8,-6.25 -6.25,-6.25l-255.66,0c-0.28,0 -0.56,0.02 -0.83,0.06l-32.45,4.35c-0.54,0.07 -1.09,0.07 -1.64,0l-33.5,-4.35c-0.27,-0.04 -0.54,-0.06 -0.8,-0.06l-210.85,0c-1.05,0 -2.08,0.27 -3,0.77l-17.65,9.69c-2.01,1.1 -3.25,3.21 -3.24,5.5z" fill="#DFA164" id="svg_4"/>
   <path d="m160.19,277.9c22.83,-5.98 63.56,-8.02 112.14,-7.68l-4.1,-0.53l0,0l-0.02,-0.01c-0.27,-0.03 -0.54,-0.05 -0.81,-0.05l-66.57,0c-16.81,1.25 -30.87,3.16 -41.27,5.88c-53.63,14.05 -98.16,12.04 -126.45,7.74c-0.07,0.18 -0.14,0.37 -0.19,0.55c0,0.01 0,0.01 -0.01,0.02c-0.05,0.18 -0.1,0.37 -0.13,0.56c0,0.01 -0.01,0.02 -0.01,0.03c-0.01,0.08 -0.03,0.16 -0.04,0.24c0,0.02 0,0.03 -0.01,0.05c-0.01,0.09 -0.02,0.18 -0.03,0.27c0,0.01 0,0.03 0,0.04c-0.01,0.08 -0.01,0.15 -0.02,0.23c0,0.02 0,0.05 0,0.07c0,0.09 -0.01,0.18 -0.01,0.27l0,0.09c28.57,4.35 73.49,6.39 127.53,-7.77z" fill="#CE7F42" id="svg_5"/>
   <path d="m336.63,269.63c-0.28,0 -0.56,0.02 -0.83,0.06l-12.14,1.62c97.48,3.27 210.25,12.87 274.88,18.94l0,-2.48c-60.21,-5.65 -161.97,-14.34 -254.39,-18.14l-7.52,0z" fill="#CE7F42" id="svg_6"/>
   <path d="m303.35,274.04c-0.54,0.07 -1.09,0.07 -1.64,0l-11.03,-1.43c-45.26,-0.07 -83.02,2.08 -104.73,7.76c-75.62,19.82 -133.14,7.69 -152.55,2.26c0,0 0,0 0,0c-0.1,0.18 -0.19,0.37 -0.26,0.56c0,0 0,0 0,0c-0.08,0.19 -0.15,0.38 -0.21,0.58c0,0 0,0 0,0c-0.03,0.1 -0.06,0.2 -0.08,0.29c0,0.01 0,0.01 0,0.01c-0.03,0.1 -0.05,0.2 -0.07,0.3c0,0 0,0 0,0c-0.02,0.1 -0.04,0.2 -0.05,0.3c0,0.01 0,0.01 0,0.01c-0.02,0.11 -0.03,0.21 -0.04,0.31c0,0 0,0 0,0c19.71,5.51 77.74,17.73 153.89,-2.23c67.42,-17.67 291.03,-0.94 411.96,9.93l0,-2.48c-76.17,-6.83 -192.93,-15.98 -285.94,-17.41l-9.25,1.24z" fill="#CE7F42" id="svg_7"/>
   <path d="m332.36,269.55c-19.27,-6.98 -63.45,-0.88 -66.3,-0.91c-58.68,0.35 -151.92,-0.1 -210.79,1.39c33.16,0.83 218.93,4.08 218.72,4.05c30.2,3.18 29.33,2.26 31.59,2.13c-0.21,0.02 31.32,-2.74 31.13,-2.72c73.07,-0.07 183.75,-1.9 257.5,-3.74c-52.72,-1.32 -262.07,-0.17 -261.85,-0.2z" fill="#662F14" id="svg_8"/>
   <path d="m592,104.68l-553.13,0c-3.45,0 -6.25,2.8 -6.25,6.25l0,62.03c0,3.25 2.49,5.96 5.74,6.23l63.28,5.23c0.17,0.02 0.34,0.02 0.51,0.02l474.37,0c0.93,0 1.85,-0.22 2.69,-0.62c5.37,-2.56 10.69,-4.34 15.41,-6.45c2.22,-1 3.63,-3.25 3.63,-5.69l0,-60.75c0,-3.45 -2.8,-6.25 -6.25,-6.25z" fill="#DFA164" id="svg_9"/>
   <path d="m577.59,184.45c-71.75,2.44 -131.17,1.45 -201.88,0.51c-65.26,-0.62 -178.34,4.03 -336.48,-0.51l0,-0.42c162.16,-4.66 268.34,0.14 336.48,-0.51c67.75,-0.88 129.96,-1.93 201.88,0.51l0,0.42z" fill="#662F14" id="svg_10"/>
   <path d="m32.98,190.5l0.11,65.78c0,2.5 1.51,4.77 3.81,5.74l16.98,7.19c0.77,0.33 1.6,0.5 2.43,0.5l212.92,-0.02c0.25,0 0.48,-0.02 0.72,-0.04c2.93,-0.35 23.6,-2.74 30.73,-2.74c8.02,0 30.72,2.42 33.7,2.74c0.22,0.02 0.44,0.03 0.66,0.03l257.27,-0.02c3.47,0 6.27,-2.82 6.25,-6.28l-0.33,-69.72c-0.02,-2.92 -2.05,-5.44 -4.9,-6.08l-14.38,-3.19c-0.45,-0.1 -0.9,-0.15 -1.36,-0.15l-538.36,0c-3.46,0 -6.26,2.8 -6.25,6.26z" fill="#DFA164" id="svg_11"/>
   <g id="svg_12">
    <path d="m162.79,131.96c67.6,-7.07 118.26,-20.32 177.41,-10.3c34.59,5.77 61.54,14.11 90.8,12.3c22.97,-2.41 33.88,-5.96 69.71,-29.28l-15.18,0c-3.37,2.16 -5.99,3.76 -8.27,5.01c-1.89,0.82 -20.84,13.3 -46.85,15.07c-25.94,1.6 -53.09,-7 -88.49,-13.09c-69.53,-12.1 -128.87,7.12 -202.54,10.96c-34.1,-0.27 -70.66,-4.05 -106.76,-9.69l0,9.38c46.91,8.69 96.25,13.96 130.17,9.64z" fill="#CE7F42" id="svg_13"/>
    <path d="m380.95,143.9c-0.04,-0.01 -0.04,-0.01 0,0l0,0z" fill="#CE7F42" id="svg_14"/>
    <path d="m322.31,134.59c25.63,1.31 45.67,5.11 58.67,9.32c1.15,0.33 19.03,5.51 19.22,5.56c60.6,15.04 133.33,-5.58 198.05,-28.62l0,-4.67c-64.79,23.37 -137.07,44.31 -197.13,29.58c-72.38,-21.55 -91.85,-17.26 -198.21,-3.46c-6.59,0.74 -13.2,1.72 -19.77,2.27c-0.22,0 -65.63,7.54 -150.52,-5.8l0,2.92c140.2,23.42 207.37,-9.54 289.69,-7.1z" fill="#CE7F42" id="svg_15"/>
    <path d="m380.98,143.91l0,0c-0.01,-0.01 -0.02,-0.01 -0.03,-0.01c0.01,0 0.02,0 0.03,0.01z" fill="#CE7F42" id="svg_16"/>
    <path d="m233.75,188.53c-22.77,-17.03 -136.34,-19.36 -201.13,-19.25l0,3.68c0,0.47 0.05,0.92 0.15,1.36c68.98,0.01 189.02,2.64 199.41,19.51c-7.92,10.05 -128.93,5.19 -199.2,1.45l0.01,5.1c84.11,4.68 229.99,10.02 200.76,-11.85z" fill="#CE7F42" id="svg_17"/>
    <path d="m255.74,171.52c30.42,-4.65 233.74,9.5 342.48,0.73c0.02,-0.19 0.03,-0.37 0.03,-0.56l0,-4.34c-107.42,8.5 -313.47,-5.27 -343.26,-0.71c-36.38,5.57 -210.97,-15.13 -222.37,-16.5l0,4.98c17.19,2.06 186.19,22.06 223.12,16.4z" fill="#CE7F42" id="svg_18"/>
    <path d="m419.32,188.83c-8.85,16.55 99.92,22.76 179,25.12l-0.02,-5.03c-81.74,-2.56 -166.16,-8.28 -174.34,-18c10.51,-7.88 116.38,0.3 174.28,5.46l-0.02,-2.72c0,-0.83 -0.17,-1.63 -0.47,-2.36c-60.54,-5.5 -172.25,-14.01 -178.43,-2.47z" fill="#CE7F42" id="svg_19"/>
    <path d="m175.49,243.31c41.94,5.15 -42.18,2.85 423.02,10.6l-0.02,-5.39c-130.11,-7.03 -266.05,-10.29 -393.92,-11.46c-5.95,-0.79 -40.52,-5.39 -56.87,-5.66c-27.6,-0.61 -67.46,-2.09 -114.64,7.99l0.01,5.65c0.04,-0.01 0.09,-0.02 0.13,-0.02c72.86,-11.74 138.18,-1.76 142.29,-1.71z" fill="#CE7F42" id="svg_20"/>
    <path d="m420.68,231.05c129.04,13.18 86.62,-2.52 163.03,-0.33c4.9,0.16 9.8,0.38 14.7,0.67l-0.03,-5.46c-14.35,-1.41 -26.61,-2.08 -35.19,-2.09c-60.45,0.47 -18.97,10.43 -141.5,-2.65c-50.49,-5.7 -116.11,-15.71 -148.65,-15.59c-74.44,3.72 -159.8,7.54 -240.01,16.4l0.01,4.02c321.13,-12.78 214.89,-12.65 387.64,5.03z" fill="#CE7F42" id="svg_21"/>
    <path d="m409.91,323.47c0.81,-0.17 14.01,-2.85 14.2,-2.89c45.62,-7.53 123.57,9.23 174.43,23.15l0,-2.76c-42.09,-12 -95.58,-24.09 -135.94,-26.22c-32.18,-1.77 -44.86,2.88 -48.86,3.33c-51.73,10.15 -90.73,-7.8 -142.37,-13.19c-35.84,-3.96 -168.39,1.24 -238.62,6.84l0.02,4.14c62.27,-2.86 148.36,-6.48 199.58,-7.17c73.94,-1.41 124.35,26.14 177.56,14.77zm-0.04,0c0,0 0,0 0,0l0,0z" fill="#CE7F42" id="svg_22"/>
    <path d="m433.44,301.33c11.59,-0.94 13,-2.35 13.42,-3.59c0.12,-0.37 0.29,-1.31 -0.75,-2.24c-10.04,-8.89 -63.43,-11.14 -66.34,-11.26c-9.59,-1.13 -91.6,-10.53 -98.49,-0.52c-11.83,17.16 124.46,19.86 152.16,17.61zm-53.92,-14.63c11.83,0.48 55.35,3.16 64.66,10.42c-11.01,6.07 -154.57,1.12 -160.81,-10.76c-5.37,-10.21 83.88,-1.12 96.15,0.34z" fill="#CE7F42" id="svg_23"/>
    <path d="m129.44,340.74c15.03,2.87 36.66,15.18 57.89,19.62l26.54,0c2.01,-0.56 3.98,-1.29 5.91,-2.19c27.31,-12.77 81.41,-14.49 130.72,-14.49c23.13,0 85.12,8.32 141.56,16.68l16.67,0c-60.38,-9.11 -132.72,-19.15 -158.23,-19.15c-49.58,0 -104.01,1.75 -131.77,14.73c-27.6,12.91 -65.63,-13.19 -88.83,-17.63c-15.04,-2.87 -64.02,3.41 -97.03,8.25l0.01,2.51c32.89,-4.81 81.98,-11.12 96.56,-8.33z" fill="#CE7F42" id="svg_24"/>
    <path d="m144.96,325.17c27.63,3.78 8.24,32.79 95.71,7.12c31.87,-9.35 26.12,-8.49 81.26,-2.28c43.81,4.94 103.83,11.71 127.73,9.78c23.09,-1.85 85.44,11.12 126.77,20.57l15.86,0c1.05,0 2.04,-0.26 2.91,-0.72c-38.71,-9.2 -118.18,-26.98 -145.94,-24.77c-36.18,2.92 -157.71,-14.61 -176.36,-14.61c-18.79,0 -51.99,16.08 -81.89,17.53c-29.4,1.42 -22.54,-14.39 -45.38,-17.51c-12.93,-1.77 -69.07,2.89 -112.83,7l0.02,4.97c43.61,-4.09 99.73,-8.78 112.14,-7.08z" fill="#CE7F42" id="svg_25"/>
   </g>
   <path d="m577.59,184.03c-71.92,-2.44 -134.13,-1.39 -201.88,-0.51c-68.14,0.65 -174.32,-4.15 -336.48,0.51l0,0.21l539.87,0.06l-1.51,-0.27z" fill="#662F14" id="svg_26"/>
   <path d="m568.21,148.33c0,-15.28 -6.61,-29.96 -18.79,-43.65l-510.55,0c-3.45,0 -6.25,2.8 -6.25,6.25l0,62.03c0,3.25 2.49,5.96 5.74,6.23l61.07,5.05l-60.2,0c-3.46,0 -6.26,2.8 -6.25,6.26l0.11,65.78c0,2.12 1.08,4.07 2.82,5.21c53.69,13.21 117.42,20.87 185.77,20.87c191.39,0 346.53,-60.01 346.53,-134.03zm-267.53,118.58c6.57,0 28.06,2.04 35.18,2.77c-0.02,0 -0.04,0 -0.06,0.01c-33.69,4.44 -32.57,4.55 -34.09,4.35l-33.48,-4.35c3.85,-0.04 23.67,-2.78 32.45,-2.78z" fill="#DFA164" id="svg_27" opacity="0.13"/>
  </g>
 </g>
</svg>